<svg xmlns="http://www.w3.org/2000/svg" width="36" height="36" viewBox="0 0 36 36">
  <g id="Groupe_144" data-name="Groupe 144" transform="translate(-238 -238)">
    <path id="Tracé_464" data-name="Tracé 464" d="M273.013,265.276l-7.291-7.291a2.806,2.806,0,0,1,0-3.97l7.291-7.291a3.371,3.371,0,0,0,0-4.767l-2.97-2.97a3.371,3.371,0,0,0-4.767,0l-7.291,7.291a2.808,2.808,0,0,1-3.97,0l-7.291-7.291a3.371,3.371,0,0,0-4.767,0l-2.97,2.97a3.371,3.371,0,0,0,0,4.767l7.291,7.291a2.806,2.806,0,0,1,0,3.97l-7.291,7.291a3.371,3.371,0,0,0,0,4.767l2.97,2.97a3.371,3.371,0,0,0,4.767,0l7.291-7.291a2.806,2.806,0,0,1,3.97,0l7.291,7.291a3.371,3.371,0,0,0,4.767,0l2.97-2.97A3.371,3.371,0,0,0,273.013,265.276Z" fill="#ff8a98"/>
    <path id="Tracé_465" data-name="Tracé 465" d="M248.01,240.273l-1.286-1.286a3.371,3.371,0,0,0-4.767,0l-2.97,2.97a3.371,3.371,0,0,0,0,4.767l7.291,7.291a2.806,2.806,0,0,1,0,3.97l-7.291,7.291a3.371,3.371,0,0,0,0,4.767l1.831,1.831a6.625,6.625,0,0,1,1.893-4.555l9.81-9.81a3.833,3.833,0,0,0,0-5.419l-5.73-5.731a3.39,3.39,0,0,1-.067-4.726Z" fill="#fd5c6f"/>
  </g>
</svg>